<mxfile host="app.diagrams.net" modified="2021-12-10T12:47:10.117Z" agent="5.0 (Macintosh; Intel Mac OS X 10_15_7) AppleWebKit/537.36 (KHTML, like Gecko) Chrome/96.0.4664.55 Safari/537.36" etag="9p081-RgWku07UovuaNm" version="15.9.4" type="github">
  <diagram id="C5RBs43oDa-KdzZeNtuy" name="Page-1">
    <mxGraphModel dx="909" dy="627" grid="1" gridSize="10" guides="1" tooltips="1" connect="1" arrows="1" fold="1" page="1" pageScale="1" pageWidth="827" pageHeight="1169" math="0" shadow="0">
      <root>
        <mxCell id="WIyWlLk6GJQsqaUBKTNV-0" />
        <mxCell id="WIyWlLk6GJQsqaUBKTNV-1" parent="WIyWlLk6GJQsqaUBKTNV-0" />
        <mxCell id="9R8BLQ8JfffucgrTvtFe-2" value="" style="edgeStyle=orthogonalEdgeStyle;rounded=0;orthogonalLoop=1;jettySize=auto;html=1;" edge="1" parent="WIyWlLk6GJQsqaUBKTNV-1" source="9R8BLQ8JfffucgrTvtFe-0" target="9R8BLQ8JfffucgrTvtFe-1">
          <mxGeometry relative="1" as="geometry" />
        </mxCell>
        <mxCell id="9R8BLQ8JfffucgrTvtFe-0" value="Start" style="rounded=1;whiteSpace=wrap;html=1;" vertex="1" parent="WIyWlLk6GJQsqaUBKTNV-1">
          <mxGeometry x="290" y="160" width="120" height="60" as="geometry" />
        </mxCell>
        <mxCell id="9R8BLQ8JfffucgrTvtFe-4" value="" style="edgeStyle=orthogonalEdgeStyle;rounded=0;orthogonalLoop=1;jettySize=auto;html=1;" edge="1" parent="WIyWlLk6GJQsqaUBKTNV-1" source="9R8BLQ8JfffucgrTvtFe-1" target="9R8BLQ8JfffucgrTvtFe-3">
          <mxGeometry relative="1" as="geometry" />
        </mxCell>
        <mxCell id="9R8BLQ8JfffucgrTvtFe-6" value="" style="edgeStyle=orthogonalEdgeStyle;rounded=0;orthogonalLoop=1;jettySize=auto;html=1;" edge="1" parent="WIyWlLk6GJQsqaUBKTNV-1" source="9R8BLQ8JfffucgrTvtFe-1" target="9R8BLQ8JfffucgrTvtFe-5">
          <mxGeometry relative="1" as="geometry" />
        </mxCell>
        <mxCell id="9R8BLQ8JfffucgrTvtFe-8" value="" style="edgeStyle=orthogonalEdgeStyle;rounded=0;orthogonalLoop=1;jettySize=auto;html=1;" edge="1" parent="WIyWlLk6GJQsqaUBKTNV-1" source="9R8BLQ8JfffucgrTvtFe-1" target="9R8BLQ8JfffucgrTvtFe-7">
          <mxGeometry relative="1" as="geometry" />
        </mxCell>
        <mxCell id="9R8BLQ8JfffucgrTvtFe-1" value="What pizza size do you want?" style="rhombus;whiteSpace=wrap;html=1;rounded=1;" vertex="1" parent="WIyWlLk6GJQsqaUBKTNV-1">
          <mxGeometry x="230" y="290" width="240" height="80" as="geometry" />
        </mxCell>
        <mxCell id="9R8BLQ8JfffucgrTvtFe-9" style="edgeStyle=orthogonalEdgeStyle;rounded=0;orthogonalLoop=1;jettySize=auto;html=1;exitX=0.5;exitY=1;exitDx=0;exitDy=0;entryX=1;entryY=0.5;entryDx=0;entryDy=0;" edge="1" parent="WIyWlLk6GJQsqaUBKTNV-1" source="9R8BLQ8JfffucgrTvtFe-3" target="9R8BLQ8JfffucgrTvtFe-12">
          <mxGeometry relative="1" as="geometry">
            <mxPoint x="400" y="690" as="targetPoint" />
          </mxGeometry>
        </mxCell>
        <mxCell id="9R8BLQ8JfffucgrTvtFe-3" value="Small: $15" style="whiteSpace=wrap;html=1;rounded=1;" vertex="1" parent="WIyWlLk6GJQsqaUBKTNV-1">
          <mxGeometry x="480" y="460" width="120" height="60" as="geometry" />
        </mxCell>
        <mxCell id="9R8BLQ8JfffucgrTvtFe-11" style="edgeStyle=orthogonalEdgeStyle;rounded=0;orthogonalLoop=1;jettySize=auto;html=1;entryX=0;entryY=0.5;entryDx=0;entryDy=0;" edge="1" parent="WIyWlLk6GJQsqaUBKTNV-1" source="9R8BLQ8JfffucgrTvtFe-5" target="9R8BLQ8JfffucgrTvtFe-12">
          <mxGeometry relative="1" as="geometry">
            <mxPoint x="150" y="690" as="targetPoint" />
            <Array as="points">
              <mxPoint x="150" y="720" />
            </Array>
          </mxGeometry>
        </mxCell>
        <mxCell id="9R8BLQ8JfffucgrTvtFe-5" value="Large: $25" style="whiteSpace=wrap;html=1;rounded=1;" vertex="1" parent="WIyWlLk6GJQsqaUBKTNV-1">
          <mxGeometry x="90" y="460" width="120" height="60" as="geometry" />
        </mxCell>
        <mxCell id="9R8BLQ8JfffucgrTvtFe-10" style="edgeStyle=orthogonalEdgeStyle;rounded=0;orthogonalLoop=1;jettySize=auto;html=1;exitX=0.5;exitY=1;exitDx=0;exitDy=0;entryX=0.5;entryY=0;entryDx=0;entryDy=0;" edge="1" parent="WIyWlLk6GJQsqaUBKTNV-1" source="9R8BLQ8JfffucgrTvtFe-7" target="9R8BLQ8JfffucgrTvtFe-12">
          <mxGeometry relative="1" as="geometry">
            <mxPoint x="210" y="690" as="targetPoint" />
          </mxGeometry>
        </mxCell>
        <mxCell id="9R8BLQ8JfffucgrTvtFe-7" value="Medium: $20" style="whiteSpace=wrap;html=1;rounded=1;" vertex="1" parent="WIyWlLk6GJQsqaUBKTNV-1">
          <mxGeometry x="290" y="460" width="120" height="60" as="geometry" />
        </mxCell>
        <mxCell id="9R8BLQ8JfffucgrTvtFe-17" style="edgeStyle=orthogonalEdgeStyle;rounded=0;orthogonalLoop=1;jettySize=auto;html=1;exitX=0.5;exitY=1;exitDx=0;exitDy=0;" edge="1" parent="WIyWlLk6GJQsqaUBKTNV-1" source="9R8BLQ8JfffucgrTvtFe-12" target="9R8BLQ8JfffucgrTvtFe-21">
          <mxGeometry relative="1" as="geometry">
            <mxPoint x="250" y="840" as="targetPoint" />
          </mxGeometry>
        </mxCell>
        <mxCell id="9R8BLQ8JfffucgrTvtFe-19" value="Yes" style="edgeLabel;html=1;align=center;verticalAlign=middle;resizable=0;points=[];" vertex="1" connectable="0" parent="9R8BLQ8JfffucgrTvtFe-17">
          <mxGeometry x="0.1556" y="1" relative="1" as="geometry">
            <mxPoint as="offset" />
          </mxGeometry>
        </mxCell>
        <mxCell id="9R8BLQ8JfffucgrTvtFe-18" style="edgeStyle=orthogonalEdgeStyle;rounded=0;orthogonalLoop=1;jettySize=auto;html=1;exitX=0.5;exitY=1;exitDx=0;exitDy=0;entryX=1;entryY=0.5;entryDx=0;entryDy=0;" edge="1" parent="WIyWlLk6GJQsqaUBKTNV-1" source="9R8BLQ8JfffucgrTvtFe-12" target="9R8BLQ8JfffucgrTvtFe-28">
          <mxGeometry relative="1" as="geometry">
            <mxPoint x="430" y="1040" as="targetPoint" />
            <Array as="points">
              <mxPoint x="350" y="800" />
              <mxPoint x="600" y="800" />
              <mxPoint x="600" y="1080" />
            </Array>
          </mxGeometry>
        </mxCell>
        <mxCell id="9R8BLQ8JfffucgrTvtFe-20" value="No" style="edgeLabel;html=1;align=center;verticalAlign=middle;resizable=0;points=[];" vertex="1" connectable="0" parent="9R8BLQ8JfffucgrTvtFe-18">
          <mxGeometry x="0.1556" y="1" relative="1" as="geometry">
            <mxPoint as="offset" />
          </mxGeometry>
        </mxCell>
        <mxCell id="9R8BLQ8JfffucgrTvtFe-24" style="edgeStyle=orthogonalEdgeStyle;rounded=0;orthogonalLoop=1;jettySize=auto;html=1;exitX=0.5;exitY=1;exitDx=0;exitDy=0;" edge="1" parent="WIyWlLk6GJQsqaUBKTNV-1" source="9R8BLQ8JfffucgrTvtFe-12" target="9R8BLQ8JfffucgrTvtFe-25">
          <mxGeometry relative="1" as="geometry">
            <mxPoint x="110" y="840" as="targetPoint" />
          </mxGeometry>
        </mxCell>
        <mxCell id="9R8BLQ8JfffucgrTvtFe-12" value="Do you want extra pepperoni?" style="rhombus;whiteSpace=wrap;html=1;" vertex="1" parent="WIyWlLk6GJQsqaUBKTNV-1">
          <mxGeometry x="250" y="680" width="200" height="80" as="geometry" />
        </mxCell>
        <mxCell id="9R8BLQ8JfffucgrTvtFe-27" style="edgeStyle=orthogonalEdgeStyle;rounded=0;orthogonalLoop=1;jettySize=auto;html=1;exitX=0.5;exitY=1;exitDx=0;exitDy=0;entryX=0.5;entryY=0;entryDx=0;entryDy=0;" edge="1" parent="WIyWlLk6GJQsqaUBKTNV-1" source="9R8BLQ8JfffucgrTvtFe-21" target="9R8BLQ8JfffucgrTvtFe-28">
          <mxGeometry relative="1" as="geometry">
            <mxPoint x="360" y="1040" as="targetPoint" />
            <Array as="points">
              <mxPoint x="260" y="940" />
              <mxPoint x="345" y="940" />
            </Array>
          </mxGeometry>
        </mxCell>
        <mxCell id="9R8BLQ8JfffucgrTvtFe-21" value="+3 for Large and Medium" style="rounded=1;whiteSpace=wrap;html=1;" vertex="1" parent="WIyWlLk6GJQsqaUBKTNV-1">
          <mxGeometry x="200" y="840" width="120" height="60" as="geometry" />
        </mxCell>
        <mxCell id="9R8BLQ8JfffucgrTvtFe-26" style="edgeStyle=orthogonalEdgeStyle;rounded=0;orthogonalLoop=1;jettySize=auto;html=1;exitX=0.5;exitY=1;exitDx=0;exitDy=0;entryX=0;entryY=0.5;entryDx=0;entryDy=0;" edge="1" parent="WIyWlLk6GJQsqaUBKTNV-1" source="9R8BLQ8JfffucgrTvtFe-25" target="9R8BLQ8JfffucgrTvtFe-28">
          <mxGeometry relative="1" as="geometry">
            <mxPoint x="270" y="1040" as="targetPoint" />
          </mxGeometry>
        </mxCell>
        <mxCell id="9R8BLQ8JfffucgrTvtFe-25" value="+2 for Small" style="rounded=1;whiteSpace=wrap;html=1;" vertex="1" parent="WIyWlLk6GJQsqaUBKTNV-1">
          <mxGeometry x="50" y="840" width="120" height="60" as="geometry" />
        </mxCell>
        <mxCell id="9R8BLQ8JfffucgrTvtFe-30" value="" style="edgeStyle=orthogonalEdgeStyle;rounded=0;orthogonalLoop=1;jettySize=auto;html=1;" edge="1" parent="WIyWlLk6GJQsqaUBKTNV-1" source="9R8BLQ8JfffucgrTvtFe-28" target="9R8BLQ8JfffucgrTvtFe-29">
          <mxGeometry relative="1" as="geometry" />
        </mxCell>
        <mxCell id="9R8BLQ8JfffucgrTvtFe-31" value="Yes" style="edgeLabel;html=1;align=center;verticalAlign=middle;resizable=0;points=[];" vertex="1" connectable="0" parent="9R8BLQ8JfffucgrTvtFe-30">
          <mxGeometry x="-0.0756" y="1" relative="1" as="geometry">
            <mxPoint as="offset" />
          </mxGeometry>
        </mxCell>
        <mxCell id="9R8BLQ8JfffucgrTvtFe-33" value="" style="edgeStyle=orthogonalEdgeStyle;rounded=0;orthogonalLoop=1;jettySize=auto;html=1;" edge="1" parent="WIyWlLk6GJQsqaUBKTNV-1" source="9R8BLQ8JfffucgrTvtFe-28">
          <mxGeometry relative="1" as="geometry">
            <mxPoint x="474" y="1210" as="targetPoint" />
          </mxGeometry>
        </mxCell>
        <mxCell id="9R8BLQ8JfffucgrTvtFe-35" value="No" style="edgeLabel;html=1;align=center;verticalAlign=middle;resizable=0;points=[];" vertex="1" connectable="0" parent="9R8BLQ8JfffucgrTvtFe-33">
          <mxGeometry x="-0.0502" y="1" relative="1" as="geometry">
            <mxPoint as="offset" />
          </mxGeometry>
        </mxCell>
        <mxCell id="9R8BLQ8JfffucgrTvtFe-28" value="Extra Cheese?" style="rhombus;whiteSpace=wrap;html=1;" vertex="1" parent="WIyWlLk6GJQsqaUBKTNV-1">
          <mxGeometry x="210" y="1040" width="270" height="80" as="geometry" />
        </mxCell>
        <mxCell id="9R8BLQ8JfffucgrTvtFe-29" value="+1" style="rounded=1;whiteSpace=wrap;html=1;" vertex="1" parent="WIyWlLk6GJQsqaUBKTNV-1">
          <mxGeometry x="150" y="1210" width="120" height="60" as="geometry" />
        </mxCell>
        <mxCell id="9R8BLQ8JfffucgrTvtFe-34" value="No change" style="rounded=1;whiteSpace=wrap;html=1;" vertex="1" parent="WIyWlLk6GJQsqaUBKTNV-1">
          <mxGeometry x="414" y="1210" width="120" height="60" as="geometry" />
        </mxCell>
      </root>
    </mxGraphModel>
  </diagram>
</mxfile>
